<?xml version="1.0" ?><!DOCTYPE svg  PUBLIC '-//W3C//DTD SVG 1.1//EN'  'http://www.w3.org/Graphics/SVG/1.1/DTD/svg11.dtd'><svg enable-background="new 0 0 85 85" height="85px" id="Layer_1" version="1.1" viewBox="0 0 85 85" width="85px" xml:space="preserve" xmlns="http://www.w3.org/2000/svg" xmlns:xlink="http://www.w3.org/1999/xlink"><g><g><path d="M45.029,50.576    c2.506-3.58,3.98-10.363,1.916-23.033" fill="none" stroke="#000" stroke-linejoin="round" stroke-miterlimit="10" stroke-width="5"/></g><path d="M23.421,42.301   c0,0,8.297-1.139,11.711,6.828c0,0,1.48,4.895,5.246,4.895c0,0,1.678,0.322,1.727,2.408c0,0,1.139,8.725-5.406,10.338   c0,0-10.432-0.191-10.432,8.439" fill="none" stroke="#000" stroke-linejoin="round" stroke-miterlimit="10" stroke-width="5"/><path d="M22.851,45.334v-10.81   c0,0-19.176,7.966-19.917,22.951l-0.454,9.58" fill="none" stroke="#000" stroke-linejoin="round" stroke-miterlimit="10" stroke-width="5"/><path d="M59.141,69.158   c-2.889-7.705-4.188-15.729-0.135-25.699h14.619c0,0,8.426-0.938,8.895-15.916l-14.98-6.556c0,0-0.469-7.958-9.361-9.829   c0,0-20.598-7.957-27.618,14.51c0,0-1.482,4.512-2.314,9.947" fill="none" stroke="#000" stroke-linejoin="round" stroke-miterlimit="10" stroke-width="5"/></g></svg>